<svg xmlns="http://www.w3.org/2000/svg" xmlns:xlink="http://www.w3.org/1999/xlink" version="1.1" id="Layer_1" x="0px" y="0px" width="36px" height="32px" viewBox="0 0 36 32" enable-background="new 0 0 36 32" xml:space="preserve">
<g>
	<path fill="#F5F5F5" d="M18.009,5.956c0,0-13.328,8.275-13.328,9.19v14.737c0,0.915,0.741,1.655,1.656,1.655h7.086V21.03   c0-0.836,0.679-1.516,1.516-1.516h6.14c0.838,0,1.516,0.68,1.516,1.516v10.509h7.088c0.914,0,1.656-0.74,1.656-1.655V15.146   C31.339,14.231,18.009,5.956,18.009,5.956z"/>
	<path fill="#F5F5F5" d="M34.683,11.557l-3.455-2.353V4.07c0-0.997-0.807-1.803-1.803-1.803h-2.438   c-0.996,0-1.805,0.807-1.805,1.803v1.017l-6.524-4.446c-0.352-0.238-0.813-0.24-1.165-0.002L1.322,11.555   c-0.476,0.32-0.602,0.965-0.279,1.44c0.2,0.298,0.527,0.458,0.86,0.458c0.201,0,0.402-0.059,0.58-0.178L18.07,2.753l15.444,10.52   c0.473,0.321,1.119,0.2,1.441-0.274S35.155,11.88,34.683,11.557z"/>
</g>
</svg>